<svg width="32" xmlns="http://www.w3.org/2000/svg" height="32" fill="none"><defs><clipPath id="a" class="frame-clip frame-clip-def"><rect rx="0" ry="0" width="32" height="32" transform="matrix(1.000000, 0.000000, 0.000000, 1.000000, 0.000000, 0.000000)"/></clipPath></defs><g clip-path="url(#a)"><g class="fills"><rect rx="0" ry="0" width="32" height="32" transform="matrix(1.000000, 0.000000, 0.000000, 1.000000, 0.000000, 0.000000)" class="frame-background"/></g><g class="frame-children"><path d="M4.000,4.000L15.000,4.000L15.000,28.000L4.000,28.000L4.000,4.000ZM2.000,2.000L2.000,30.000L15.000,30.000L15.000,28.000L15.000,4.000L15.000,4.000L15.000,2.000L2.000,2.000Z" style="fill: rgb(0, 0, 0); fill-opacity: 1;" class="fills"/><path d="M17.000,10.000L23.000,5.000L23.000,2.000L32.000,2.000L28.000,9.000L17.000,10.000ZM17.000,22.000L32.000,24.000L27.000,27.000L27.000,32.000M18.000,16.000L25.000,14.000L28.000,16.000L25.000,18.000" style="fill: rgb(149, 218, 178); fill-opacity: 1;" class="fills"/></g></g></svg>